<mxfile host="app.diagrams.net" agent="Mozilla/5.0 (Windows NT 10.0; Win64; x64) AppleWebKit/537.36 (KHTML, like Gecko) Chrome/133.0.0.0 Safari/537.36" version="26.0.16">
  <diagram id="C5RBs43oDa-KdzZeNtuy" name="Page-1">
    <mxGraphModel dx="1195" dy="668" grid="1" gridSize="10" guides="1" tooltips="1" connect="1" arrows="1" fold="1" page="1" pageScale="1" pageWidth="827" pageHeight="1169" math="0" shadow="0">
      <root>
        <mxCell id="WIyWlLk6GJQsqaUBKTNV-0" />
        <mxCell id="WIyWlLk6GJQsqaUBKTNV-1" parent="WIyWlLk6GJQsqaUBKTNV-0" />
        <mxCell id="N8fU0dvKJj-nHR3C0utH-84" style="edgeStyle=none;curved=1;rounded=0;orthogonalLoop=1;jettySize=auto;html=1;fontSize=12;startSize=8;endSize=8;entryX=0.153;entryY=1;entryDx=0;entryDy=0;entryPerimeter=0;exitX=0.182;exitY=0.02;exitDx=0;exitDy=0;exitPerimeter=0;" parent="WIyWlLk6GJQsqaUBKTNV-1" source="N8fU0dvKJj-nHR3C0utH-25" edge="1">
          <mxGeometry relative="1" as="geometry">
            <mxPoint x="70" y="300" as="sourcePoint" />
            <mxPoint x="70.13000000000008" y="251" as="targetPoint" />
          </mxGeometry>
        </mxCell>
        <mxCell id="N8fU0dvKJj-nHR3C0utH-25" value="EngineLib" style="rounded=0;whiteSpace=wrap;html=1;" parent="WIyWlLk6GJQsqaUBKTNV-1" vertex="1">
          <mxGeometry x="30" y="300" width="220" height="60" as="geometry" />
        </mxCell>
        <mxCell id="N8fU0dvKJj-nHR3C0utH-32" style="edgeStyle=none;curved=1;rounded=0;orthogonalLoop=1;jettySize=auto;html=1;entryX=0.5;entryY=1;entryDx=0;entryDy=0;fontSize=12;startSize=8;endSize=8;" parent="WIyWlLk6GJQsqaUBKTNV-1" edge="1">
          <mxGeometry relative="1" as="geometry">
            <mxPoint x="70" y="458" as="sourcePoint" />
            <mxPoint x="70" y="360" as="targetPoint" />
          </mxGeometry>
        </mxCell>
        <mxCell id="N8fU0dvKJj-nHR3C0utH-26" value="Renderer" style="rounded=0;whiteSpace=wrap;html=1;" parent="WIyWlLk6GJQsqaUBKTNV-1" vertex="1">
          <mxGeometry x="30" y="458" width="220" height="60" as="geometry" />
        </mxCell>
        <mxCell id="N8fU0dvKJj-nHR3C0utH-30" style="edgeStyle=none;curved=1;rounded=0;orthogonalLoop=1;jettySize=auto;html=1;exitX=0.5;exitY=0;exitDx=0;exitDy=0;fontSize=12;startSize=8;endSize=8;entryX=0.25;entryY=1;entryDx=0;entryDy=0;" parent="WIyWlLk6GJQsqaUBKTNV-1" source="N8fU0dvKJj-nHR3C0utH-27" target="N8fU0dvKJj-nHR3C0utH-26" edge="1">
          <mxGeometry relative="1" as="geometry">
            <mxPoint x="85.31034482758628" y="528" as="targetPoint" />
          </mxGeometry>
        </mxCell>
        <mxCell id="N8fU0dvKJj-nHR3C0utH-27" value="RendererOpenGL" style="rounded=0;whiteSpace=wrap;html=1;" parent="WIyWlLk6GJQsqaUBKTNV-1" vertex="1">
          <mxGeometry x="30" y="558" width="110" height="60" as="geometry" />
        </mxCell>
        <mxCell id="N8fU0dvKJj-nHR3C0utH-28" value="RendererVulkan" style="rounded=0;whiteSpace=wrap;html=1;" parent="WIyWlLk6GJQsqaUBKTNV-1" vertex="1">
          <mxGeometry x="150" y="558" width="100" height="60" as="geometry" />
        </mxCell>
        <mxCell id="N8fU0dvKJj-nHR3C0utH-29" style="edgeStyle=none;curved=1;rounded=0;orthogonalLoop=1;jettySize=auto;html=1;exitX=0.5;exitY=1;exitDx=0;exitDy=0;fontSize=12;startSize=8;endSize=8;" parent="WIyWlLk6GJQsqaUBKTNV-1" source="N8fU0dvKJj-nHR3C0utH-28" target="N8fU0dvKJj-nHR3C0utH-28" edge="1">
          <mxGeometry relative="1" as="geometry" />
        </mxCell>
        <mxCell id="N8fU0dvKJj-nHR3C0utH-31" style="edgeStyle=none;curved=1;rounded=0;orthogonalLoop=1;jettySize=auto;html=1;entryX=0.772;entryY=0.984;entryDx=0;entryDy=0;entryPerimeter=0;fontSize=12;startSize=8;endSize=8;" parent="WIyWlLk6GJQsqaUBKTNV-1" source="N8fU0dvKJj-nHR3C0utH-28" target="N8fU0dvKJj-nHR3C0utH-26" edge="1">
          <mxGeometry relative="1" as="geometry" />
        </mxCell>
        <mxCell id="N8fU0dvKJj-nHR3C0utH-35" value="" style="edgeStyle=elbowEdgeStyle;elbow=vertical;endArrow=classic;html=1;curved=0;rounded=0;endSize=8;startSize=8;fontSize=12;" parent="WIyWlLk6GJQsqaUBKTNV-1" target="N8fU0dvKJj-nHR3C0utH-27" edge="1">
          <mxGeometry width="50" height="50" relative="1" as="geometry">
            <mxPoint x="330" y="670" as="sourcePoint" />
            <mxPoint x="80" y="610" as="targetPoint" />
            <Array as="points">
              <mxPoint x="150" y="670" />
            </Array>
          </mxGeometry>
        </mxCell>
        <mxCell id="N8fU0dvKJj-nHR3C0utH-36" value="" style="edgeStyle=elbowEdgeStyle;elbow=vertical;endArrow=classic;html=1;curved=0;rounded=0;endSize=8;startSize=8;fontSize=12;exitX=-0.003;exitY=0.908;exitDx=0;exitDy=0;exitPerimeter=0;" parent="WIyWlLk6GJQsqaUBKTNV-1" source="N8fU0dvKJj-nHR3C0utH-73" edge="1">
          <mxGeometry width="50" height="50" relative="1" as="geometry">
            <mxPoint x="330" y="660" as="sourcePoint" />
            <mxPoint x="200" y="618" as="targetPoint" />
            <Array as="points">
              <mxPoint x="264" y="660" />
            </Array>
          </mxGeometry>
        </mxCell>
        <mxCell id="N8fU0dvKJj-nHR3C0utH-44" value="FastNoise2" style="rounded=0;whiteSpace=wrap;html=1;" parent="WIyWlLk6GJQsqaUBKTNV-1" vertex="1">
          <mxGeometry x="530" y="610" width="100" height="30" as="geometry" />
        </mxCell>
        <mxCell id="N8fU0dvKJj-nHR3C0utH-77" style="edgeStyle=none;curved=1;rounded=0;orthogonalLoop=1;jettySize=auto;html=1;exitX=0;exitY=0.5;exitDx=0;exitDy=0;fontSize=12;startSize=8;endSize=8;entryX=0.996;entryY=0.96;entryDx=0;entryDy=0;entryPerimeter=0;" parent="WIyWlLk6GJQsqaUBKTNV-1" source="N8fU0dvKJj-nHR3C0utH-45" target="N8fU0dvKJj-nHR3C0utH-73" edge="1">
          <mxGeometry relative="1" as="geometry">
            <mxPoint x="510" y="650" as="targetPoint" />
          </mxGeometry>
        </mxCell>
        <mxCell id="N8fU0dvKJj-nHR3C0utH-45" value="ImGui" style="rounded=0;whiteSpace=wrap;html=1;" parent="WIyWlLk6GJQsqaUBKTNV-1" vertex="1">
          <mxGeometry x="530" y="650" width="100" height="30" as="geometry" />
        </mxCell>
        <mxCell id="N8fU0dvKJj-nHR3C0utH-47" value="CUTILS" style="rounded=0;whiteSpace=wrap;html=1;" parent="WIyWlLk6GJQsqaUBKTNV-1" vertex="1">
          <mxGeometry x="530" y="528" width="100" height="30" as="geometry" />
        </mxCell>
        <mxCell id="N8fU0dvKJj-nHR3C0utH-68" value="" style="edgeStyle=none;curved=1;rounded=0;orthogonalLoop=1;jettySize=auto;html=1;fontSize=12;startSize=8;endSize=8;entryX=0.999;entryY=0.371;entryDx=0;entryDy=0;entryPerimeter=0;" parent="WIyWlLk6GJQsqaUBKTNV-1" target="N8fU0dvKJj-nHR3C0utH-73" edge="1">
          <mxGeometry relative="1" as="geometry">
            <mxPoint x="489" y="439.85968615987093" as="targetPoint" />
            <mxPoint x="529.7" y="428.0022491826276" as="sourcePoint" />
          </mxGeometry>
        </mxCell>
        <mxCell id="N8fU0dvKJj-nHR3C0utH-48" value="GLM" style="rounded=0;whiteSpace=wrap;html=1;" parent="WIyWlLk6GJQsqaUBKTNV-1" vertex="1">
          <mxGeometry x="530" y="410" width="100" height="30" as="geometry" />
        </mxCell>
        <mxCell id="N8fU0dvKJj-nHR3C0utH-49" value="STB" style="rounded=0;whiteSpace=wrap;html=1;" parent="WIyWlLk6GJQsqaUBKTNV-1" vertex="1">
          <mxGeometry x="530" y="490" width="100" height="28" as="geometry" />
        </mxCell>
        <mxCell id="N8fU0dvKJj-nHR3C0utH-72" style="edgeStyle=none;curved=1;rounded=0;orthogonalLoop=1;jettySize=auto;html=1;exitX=0;exitY=0.5;exitDx=0;exitDy=0;fontSize=12;startSize=8;endSize=8;entryX=0.999;entryY=0.46;entryDx=0;entryDy=0;entryPerimeter=0;" parent="WIyWlLk6GJQsqaUBKTNV-1" source="N8fU0dvKJj-nHR3C0utH-50" target="N8fU0dvKJj-nHR3C0utH-73" edge="1">
          <mxGeometry relative="1" as="geometry">
            <mxPoint x="490" y="465.21212121212125" as="targetPoint" />
          </mxGeometry>
        </mxCell>
        <mxCell id="N8fU0dvKJj-nHR3C0utH-50" value="yaml-cpp" style="rounded=0;whiteSpace=wrap;html=1;" parent="WIyWlLk6GJQsqaUBKTNV-1" vertex="1">
          <mxGeometry x="530" y="450" width="100" height="30" as="geometry" />
        </mxCell>
        <mxCell id="N8fU0dvKJj-nHR3C0utH-51" style="edgeStyle=none;curved=1;rounded=0;orthogonalLoop=1;jettySize=auto;html=1;exitX=0.5;exitY=0;exitDx=0;exitDy=0;fontSize=12;startSize=8;endSize=8;" parent="WIyWlLk6GJQsqaUBKTNV-1" source="N8fU0dvKJj-nHR3C0utH-44" target="N8fU0dvKJj-nHR3C0utH-44" edge="1">
          <mxGeometry relative="1" as="geometry" />
        </mxCell>
        <mxCell id="N8fU0dvKJj-nHR3C0utH-46" value="GLFW" style="rounded=0;whiteSpace=wrap;html=1;" parent="WIyWlLk6GJQsqaUBKTNV-1" vertex="1">
          <mxGeometry x="530" y="570" width="100" height="30" as="geometry" />
        </mxCell>
        <mxCell id="N8fU0dvKJj-nHR3C0utH-67" value="" style="edgeStyle=none;curved=1;rounded=0;orthogonalLoop=1;jettySize=auto;html=1;fontSize=12;startSize=8;endSize=8;entryX=0.999;entryY=0.209;entryDx=0;entryDy=0;entryPerimeter=0;" parent="WIyWlLk6GJQsqaUBKTNV-1" source="N8fU0dvKJj-nHR3C0utH-54" target="N8fU0dvKJj-nHR3C0utH-73" edge="1">
          <mxGeometry relative="1" as="geometry">
            <mxPoint x="490" y="365" as="targetPoint" />
          </mxGeometry>
        </mxCell>
        <mxCell id="N8fU0dvKJj-nHR3C0utH-54" value="EngineUtils" style="rounded=0;whiteSpace=wrap;html=1;" parent="WIyWlLk6GJQsqaUBKTNV-1" vertex="1">
          <mxGeometry x="530" y="330" width="100" height="70" as="geometry" />
        </mxCell>
        <mxCell id="N8fU0dvKJj-nHR3C0utH-58" style="edgeStyle=none;curved=1;rounded=0;orthogonalLoop=1;jettySize=auto;html=1;entryX=1;entryY=0.75;entryDx=0;entryDy=0;fontSize=12;startSize=8;endSize=8;" parent="WIyWlLk6GJQsqaUBKTNV-1" source="N8fU0dvKJj-nHR3C0utH-55" target="N8fU0dvKJj-nHR3C0utH-54" edge="1">
          <mxGeometry relative="1" as="geometry" />
        </mxCell>
        <mxCell id="N8fU0dvKJj-nHR3C0utH-55" value="Logger" style="rounded=0;whiteSpace=wrap;html=1;" parent="WIyWlLk6GJQsqaUBKTNV-1" vertex="1">
          <mxGeometry x="660" y="368" width="100" height="30" as="geometry" />
        </mxCell>
        <mxCell id="N8fU0dvKJj-nHR3C0utH-57" style="edgeStyle=none;curved=1;rounded=0;orthogonalLoop=1;jettySize=auto;html=1;entryX=1;entryY=0.25;entryDx=0;entryDy=0;fontSize=12;startSize=8;endSize=8;" parent="WIyWlLk6GJQsqaUBKTNV-1" source="N8fU0dvKJj-nHR3C0utH-56" target="N8fU0dvKJj-nHR3C0utH-54" edge="1">
          <mxGeometry relative="1" as="geometry" />
        </mxCell>
        <mxCell id="N8fU0dvKJj-nHR3C0utH-56" value="FileManager" style="rounded=0;whiteSpace=wrap;html=1;" parent="WIyWlLk6GJQsqaUBKTNV-1" vertex="1">
          <mxGeometry x="660" y="330" width="100" height="30" as="geometry" />
        </mxCell>
        <mxCell id="N8fU0dvKJj-nHR3C0utH-73" value="EngineCommonInterface" style="rounded=0;whiteSpace=wrap;html=1;" parent="WIyWlLk6GJQsqaUBKTNV-1" vertex="1">
          <mxGeometry x="339" y="280" width="150" height="400" as="geometry" />
        </mxCell>
        <mxCell id="N8fU0dvKJj-nHR3C0utH-74" value="" style="edgeStyle=elbowEdgeStyle;elbow=vertical;endArrow=classic;html=1;curved=0;rounded=0;endSize=8;startSize=8;fontSize=12;exitX=0.002;exitY=0.931;exitDx=0;exitDy=0;exitPerimeter=0;" parent="WIyWlLk6GJQsqaUBKTNV-1" source="N8fU0dvKJj-nHR3C0utH-73" target="N8fU0dvKJj-nHR3C0utH-27" edge="1">
          <mxGeometry width="50" height="50" relative="1" as="geometry">
            <mxPoint x="330" y="670" as="sourcePoint" />
            <mxPoint x="80" y="610" as="targetPoint" />
            <Array as="points">
              <mxPoint x="150" y="670" />
            </Array>
          </mxGeometry>
        </mxCell>
        <mxCell id="N8fU0dvKJj-nHR3C0utH-75" value="" style="endArrow=classic;html=1;rounded=0;fontSize=12;startSize=8;endSize=8;curved=1;entryX=1;entryY=0.5;entryDx=0;entryDy=0;exitX=-0.004;exitY=0.123;exitDx=0;exitDy=0;exitPerimeter=0;" parent="WIyWlLk6GJQsqaUBKTNV-1" target="N8fU0dvKJj-nHR3C0utH-25" edge="1" source="N8fU0dvKJj-nHR3C0utH-73">
          <mxGeometry width="50" height="50" relative="1" as="geometry">
            <mxPoint x="340" y="398" as="sourcePoint" />
            <mxPoint x="420" y="380" as="targetPoint" />
          </mxGeometry>
        </mxCell>
        <mxCell id="N8fU0dvKJj-nHR3C0utH-76" value="" style="endArrow=classic;html=1;rounded=0;fontSize=12;startSize=8;endSize=8;curved=1;entryX=1.002;entryY=0.528;entryDx=0;entryDy=0;entryPerimeter=0;" parent="WIyWlLk6GJQsqaUBKTNV-1" target="N8fU0dvKJj-nHR3C0utH-26" edge="1">
          <mxGeometry width="50" height="50" relative="1" as="geometry">
            <mxPoint x="339" y="490" as="sourcePoint" />
            <mxPoint x="350" y="480" as="targetPoint" />
          </mxGeometry>
        </mxCell>
        <mxCell id="N8fU0dvKJj-nHR3C0utH-78" style="edgeStyle=none;curved=1;rounded=0;orthogonalLoop=1;jettySize=auto;html=1;entryX=1.006;entryY=0.863;entryDx=0;entryDy=0;entryPerimeter=0;fontSize=12;startSize=8;endSize=8;" parent="WIyWlLk6GJQsqaUBKTNV-1" source="N8fU0dvKJj-nHR3C0utH-44" target="N8fU0dvKJj-nHR3C0utH-73" edge="1">
          <mxGeometry relative="1" as="geometry" />
        </mxCell>
        <mxCell id="N8fU0dvKJj-nHR3C0utH-79" style="edgeStyle=none;curved=1;rounded=0;orthogonalLoop=1;jettySize=auto;html=1;entryX=0.999;entryY=0.765;entryDx=0;entryDy=0;entryPerimeter=0;fontSize=12;startSize=8;endSize=8;" parent="WIyWlLk6GJQsqaUBKTNV-1" source="N8fU0dvKJj-nHR3C0utH-46" target="N8fU0dvKJj-nHR3C0utH-73" edge="1">
          <mxGeometry relative="1" as="geometry" />
        </mxCell>
        <mxCell id="N8fU0dvKJj-nHR3C0utH-80" style="edgeStyle=none;curved=1;rounded=0;orthogonalLoop=1;jettySize=auto;html=1;entryX=1.003;entryY=0.66;entryDx=0;entryDy=0;entryPerimeter=0;fontSize=12;startSize=8;endSize=8;" parent="WIyWlLk6GJQsqaUBKTNV-1" source="N8fU0dvKJj-nHR3C0utH-47" target="N8fU0dvKJj-nHR3C0utH-73" edge="1">
          <mxGeometry relative="1" as="geometry" />
        </mxCell>
        <mxCell id="N8fU0dvKJj-nHR3C0utH-81" style="edgeStyle=none;curved=1;rounded=0;orthogonalLoop=1;jettySize=auto;html=1;fontSize=12;startSize=8;endSize=8;exitX=-0.01;exitY=0.479;exitDx=0;exitDy=0;exitPerimeter=0;entryX=0.999;entryY=0.558;entryDx=0;entryDy=0;entryPerimeter=0;" parent="WIyWlLk6GJQsqaUBKTNV-1" source="N8fU0dvKJj-nHR3C0utH-49" target="N8fU0dvKJj-nHR3C0utH-73" edge="1">
          <mxGeometry relative="1" as="geometry">
            <mxPoint x="527.6" y="503.7134246575342" as="sourcePoint" />
            <mxPoint x="500" y="504" as="targetPoint" />
          </mxGeometry>
        </mxCell>
        <mxCell id="N8fU0dvKJj-nHR3C0utH-88" style="edgeStyle=none;curved=1;rounded=0;orthogonalLoop=1;jettySize=auto;html=1;exitX=0.5;exitY=0;exitDx=0;exitDy=0;entryX=0.5;entryY=1;entryDx=0;entryDy=0;fontSize=12;startSize=8;endSize=8;" parent="WIyWlLk6GJQsqaUBKTNV-1" source="N8fU0dvKJj-nHR3C0utH-82" target="N8fU0dvKJj-nHR3C0utH-83" edge="1">
          <mxGeometry relative="1" as="geometry" />
        </mxCell>
        <mxCell id="N8fU0dvKJj-nHR3C0utH-82" value="EngineEntry" style="rounded=0;whiteSpace=wrap;html=1;" parent="WIyWlLk6GJQsqaUBKTNV-1" vertex="1">
          <mxGeometry x="30" y="190" width="720" height="60" as="geometry" />
        </mxCell>
        <mxCell id="N8fU0dvKJj-nHR3C0utH-83" value="Sandbox" style="rounded=0;whiteSpace=wrap;html=1;" parent="WIyWlLk6GJQsqaUBKTNV-1" vertex="1">
          <mxGeometry x="30" y="100" width="720" height="60" as="geometry" />
        </mxCell>
        <mxCell id="N8fU0dvKJj-nHR3C0utH-89" style="edgeStyle=none;curved=1;rounded=0;orthogonalLoop=1;jettySize=auto;html=1;exitX=0.5;exitY=0;exitDx=0;exitDy=0;entryX=0.532;entryY=1.006;entryDx=0;entryDy=0;entryPerimeter=0;fontSize=12;startSize=8;endSize=8;" parent="WIyWlLk6GJQsqaUBKTNV-1" source="N8fU0dvKJj-nHR3C0utH-73" target="N8fU0dvKJj-nHR3C0utH-82" edge="1">
          <mxGeometry relative="1" as="geometry" />
        </mxCell>
        <mxCell id="7gMAzitg1GVhtdoWEy4e-0" value="VoxelGenerator" style="rounded=0;whiteSpace=wrap;html=1;" vertex="1" parent="WIyWlLk6GJQsqaUBKTNV-1">
          <mxGeometry x="150" y="380" width="100" height="60" as="geometry" />
        </mxCell>
        <mxCell id="7gMAzitg1GVhtdoWEy4e-4" value="" style="endArrow=classic;html=1;rounded=0;fontSize=12;startSize=8;endSize=8;curved=1;entryX=1;entryY=0.5;entryDx=0;entryDy=0;exitX=-0.004;exitY=0.123;exitDx=0;exitDy=0;exitPerimeter=0;" edge="1" parent="WIyWlLk6GJQsqaUBKTNV-1">
          <mxGeometry width="50" height="50" relative="1" as="geometry">
            <mxPoint x="338" y="410" as="sourcePoint" />
            <mxPoint x="250" y="411" as="targetPoint" />
          </mxGeometry>
        </mxCell>
        <mxCell id="7gMAzitg1GVhtdoWEy4e-6" style="edgeStyle=none;curved=1;rounded=0;orthogonalLoop=1;jettySize=auto;html=1;fontSize=12;startSize=8;endSize=8;" edge="1" parent="WIyWlLk6GJQsqaUBKTNV-1">
          <mxGeometry relative="1" as="geometry">
            <mxPoint x="199.8" y="380" as="sourcePoint" />
            <mxPoint x="199.8" y="360" as="targetPoint" />
          </mxGeometry>
        </mxCell>
      </root>
    </mxGraphModel>
  </diagram>
</mxfile>
